<?xml version="1.0" encoding="utf-8"?>
<!-- Generator: Adobe Illustrator 26.0.1, SVG Export Plug-In . SVG Version: 6.00 Build 0)  -->
<svg version="1.1" id="Layer_1" xmlns="http://www.w3.org/2000/svg" xmlns:xlink="http://www.w3.org/1999/xlink" x="0px" y="0px"
	 viewBox="0 0 32.8 32.8" style="enable-background:new 0 0 32.8 32.8;" xml:space="preserve">
<style type="text/css">
	.st0{fill:#FFFFFF;}
</style>
<path class="st0" d="M26.7,13.8c0-0.7,0.6-1.3,1.3-1.3h2.6c0.7,0,1.3,0.6,1.3,1.3s-0.6,1.3-1.3,1.3H28
	C27.3,15.1,26.7,14.6,26.7,13.8z M26.8,9.3c-0.3-0.6-0.1-1.4,0.6-1.7L30,6.3c0.6-0.3,1.4-0.1,1.7,0.6c0.3,0.6,0.1,1.4-0.6,1.7
	l-2.6,1.3C27.9,10.2,27.2,9.9,26.8,9.3z M31.7,20.9c-0.3,0.6-1.1,0.9-1.7,0.6l-2.6-1.3c-0.6-0.3-0.9-1.1-0.6-1.7s1.1-0.9,1.7-0.6
	l2.6,1.3C31.8,19.4,32,20.2,31.7,20.9L31.7,20.9z M21.6,19.8c-1.8-1.4-4.1-2.1-6.4-2.1h-9c-1.4,0-2.6-1.2-2.6-2.6v-2.6
	c0-1.4,1.2-2.6,2.6-2.6h9c2.3,0.1,4.6-0.6,6.4-2V19.8z M12.5,27.5c0.2,0.4,0.1,0.8-0.1,1.2c-0.2,0.4-0.6,0.6-1.1,0.6
	c-0.6,0-1.2-0.4-1.4-0.9l-3.6-8h2.9L12.5,27.5z M22.8,1c-0.7,0-1.3,0.6-1.3,1.3c0,3.8-3.3,5.1-6.4,5.1h-9C3.3,7.4,1,9.7,1,12.6v2.6
	c0,1.6,0.7,3,1.9,4l4.6,10.2c0.7,1.5,2.2,2.5,3.8,2.5c1.3,0,2.5-0.7,3.2-1.7c0.7-1.1,0.8-2.5,0.3-3.6L12,20.3h3.1
	c3.1,0,6.4,1.4,6.4,5.1c0,0.7,0.6,1.3,1.3,1.3c0.7,0,1.3-0.6,1.3-1.3V2.3C24.1,1.6,23.5,1,22.8,1L22.8,1z"/>
</svg>
