<?xml version="1.0" encoding="utf-8"?>
<!-- Generator: Adobe Illustrator 26.0.1, SVG Export Plug-In . SVG Version: 6.00 Build 0)  -->
<svg version="1.1" id="Layer_1" xmlns="http://www.w3.org/2000/svg" xmlns:xlink="http://www.w3.org/1999/xlink" x="0px" y="0px"
	 viewBox="0 0 37.2 35.7" style="enable-background:new 0 0 37.2 35.7;" xml:space="preserve">
<style type="text/css">
	.st0{fill:#474747;}
</style>
<path class="st0" d="M14.5,11c0,1.5-1.2,2.8-2.8,2.8H7.6c-1.5,0-2.8-1.2-2.8-2.8V6.8c0-1.5,1.2-2.8,2.8-2.8h4.1
	c1.5,0,2.8,1.2,2.8,2.8V11z M11.7,1.3H7.6c-3,0-5.5,2.5-5.5,5.5V11c0,3,2.5,5.5,5.5,5.5h4.1c3,0,5.5-2.5,5.5-5.5V6.8
	C17.2,3.8,14.8,1.3,11.7,1.3z"/>
<path class="st0" d="M32.4,11c0,1.5-1.2,2.8-2.8,2.8h-4.1c-1.5,0-2.8-1.2-2.8-2.8V6.8c0-1.5,1.2-2.8,2.8-2.8h4.1
	c1.5,0,2.8,1.2,2.8,2.8V11z M29.6,1.3h-4.1c-3,0-5.5,2.5-5.5,5.5V11c0,3,2.5,5.5,5.5,5.5h4.1c3,0,5.5-2.5,5.5-5.5V6.8
	C35.1,3.8,32.7,1.3,29.6,1.3z"/>
<path class="st0" d="M14.5,28.9c0,1.5-1.2,2.8-2.8,2.8H7.6c-1.5,0-2.8-1.2-2.8-2.8v-4.1c0-1.5,1.2-2.8,2.8-2.8h4.1
	c1.5,0,2.8,1.2,2.8,2.8V28.9z M11.7,19.3H7.6c-3,0-5.5,2.5-5.5,5.5v4.1c0,3,2.5,5.5,5.5,5.5h4.1c3,0,5.5-2.5,5.5-5.5v-4.1
	C17.2,21.7,14.8,19.3,11.7,19.3z"/>
<path class="st0" d="M32.4,28.9c0,1.5-1.2,2.8-2.8,2.8h-4.1c-1.5,0-2.8-1.2-2.8-2.8v-4.1c0-1.5,1.2-2.8,2.8-2.8h4.1
	c1.5,0,2.8,1.2,2.8,2.8V28.9z M29.6,19.3h-4.1c-3,0-5.5,2.5-5.5,5.5v4.1c0,3,2.5,5.5,5.5,5.5h4.1c3,0,5.5-2.5,5.5-5.5v-4.1
	C35.1,21.7,32.7,19.3,29.6,19.3z"/>
</svg>
