<?xml version="1.0" encoding="utf-8"?>
<!-- Generator: Adobe Illustrator 26.0.1, SVG Export Plug-In . SVG Version: 6.00 Build 0)  -->
<svg version="1.1" id="Layer_1" xmlns="http://www.w3.org/2000/svg" xmlns:xlink="http://www.w3.org/1999/xlink" x="0px" y="0px"
	 viewBox="0 0 10.1 20.1" style="enable-background:new 0 0 10.1 20.1;" xml:space="preserve">
<style type="text/css">
	.st0{fill:#FFFFFF;}
</style>
<path class="st0" d="M8.8,0.5c0.2,0,0.4,0.1,0.6,0.2c0.2,0.1,0.2,0.4,0.2,0.6S9.5,1.7,9.3,1.9L2.8,8.4c-0.9,0.9-0.9,2.4,0,3.4
	l6.5,6.5c0.3,0.3,0.3,0.8,0,1.1c-0.3,0.3-0.8,0.3-1.1,0l-6.5-6.5c-0.7-0.7-1.2-1.8-1.2-2.8C0.5,9,0.9,8,1.7,7.2l6.5-6.5
	C8.3,0.6,8.5,0.5,8.8,0.5z"/>
</svg>
