<?xml version="1.0" encoding="utf-8"?>
<!-- Generator: Adobe Illustrator 26.0.1, SVG Export Plug-In . SVG Version: 6.00 Build 0)  -->
<svg version="1.1" id="Layer_1" xmlns="http://www.w3.org/2000/svg" xmlns:xlink="http://www.w3.org/1999/xlink" x="0px" y="0px"
	 viewBox="0 0 38.8 43.3" style="enable-background:new 0 0 38.8 43.3;" xml:space="preserve">
<style type="text/css">
	.st0{fill:#FFFFFF;}
</style>
<path class="st0" d="M5.4,32.3h28.1c1.8,0,3.4-0.9,4.4-2.3c1-1.4,1.3-3.3,0.7-4.9l-5.1-14.1C31.6,4.5,25.7,0,19,0l0,0
	C12,0,6,4.9,4.5,11.7L0.2,25.3c-0.5,1.6-0.2,3.4,0.8,4.8C2.1,31.5,3.7,32.3,5.4,32.3L5.4,32.3z"/>
<path class="st0" d="M10.8,35.9c0.8,4.2,4.5,7.2,8.8,7.2s7.9-3,8.8-7.2H10.8z"/>
</svg>
