<?xml version="1.0" encoding="utf-8"?>
<!-- Generator: Adobe Illustrator 26.0.1, SVG Export Plug-In . SVG Version: 6.00 Build 0)  -->
<svg version="1.1" id="Layer_1" xmlns="http://www.w3.org/2000/svg" xmlns:xlink="http://www.w3.org/1999/xlink" x="0px" y="0px"
	 viewBox="0 0 34.8 35" style="enable-background:new 0 0 34.8 35;" xml:space="preserve">
<path style="fill:#FFFFFF;" d="M31,26.2c0,0-3.4-2.6-3.4-2.6C27,23,26,23,25.4,23.6c0,0-2.9,2.3-2.9,2.3c-0.4,0.3-0.9,0.4-1.4,0.2
	C15.5,24,11,19.5,8.8,13.7c-0.2-0.5-0.1-1,0.2-1.4c0,0,2.3-2.8,2.3-2.9c0.6-0.6,0.6-1.6,0-2.2c0,0-2.6-3.4-2.6-3.4
	C8.1,3.4,7.2,3.4,6.6,4L5,5.4c-7.9,9.5,16.3,32.4,24.6,24.5l1.3-1.5C31.5,27.8,31.6,26.8,31,26.2L31,26.2z M32.9,24.2
	c1.7,1.7,1.7,4.4,0,6.1l-1.3,1.5C20.2,42.8-7.8,14.8,3,3.3l1.6-1.4C6.4,0.3,9.1,0.3,10.7,2c0,0,2.6,3.4,2.6,3.4c1.6,1.7,1.6,4.3,0,6
	l-1.6,2c1.8,4.4,5.3,7.9,9.7,9.7l2.1-1.6c1.7-1.6,4.3-1.6,6,0C29.5,21.5,32.9,24.1,32.9,24.2z M20.2,9.1c3.1,0,5.6,2.5,5.6,5.6
	c0,0.8,0.6,1.4,1.4,1.4c0.8,0,1.4-0.6,1.4-1.4c0-4.6-3.8-8.4-8.4-8.4c-0.8,0-1.4,0.6-1.4,1.4S19.4,9.1,20.2,9.1L20.2,9.1z M18.8,2.1
	c0-0.8,0.6-1.4,1.4-1.4c7.7,0,14,6.3,14,14c0,0.8-0.6,1.4-1.4,1.4c-0.8,0-1.4-0.6-1.4-1.4c0-6.2-5-11.2-11.2-11.2
	C19.4,3.5,18.8,2.9,18.8,2.1L18.8,2.1z"/>
</svg>
