<?xml version="1.0" encoding="utf-8"?>
<!-- Generator: Adobe Illustrator 26.0.1, SVG Export Plug-In . SVG Version: 6.00 Build 0)  -->
<svg version="1.1" id="Layer_1" xmlns="http://www.w3.org/2000/svg" xmlns:xlink="http://www.w3.org/1999/xlink" x="0px" y="0px"
	 viewBox="0 0 37.2 35.7" style="enable-background:new 0 0 37.2 35.7;" xml:space="preserve">
<style type="text/css">
	.st0{fill:#474747;}
	.st1{fill:#0071CF;}
</style>
<path class="st0" d="M33.3,21.5c0,2.4-2,4.4-4.4,4.4H8.3c-2.4,0-4.4-2-4.4-4.4v-1.5c0-0.5,0.1-1,0.2-1.5h2.8v1.5
	c0,0.8,0.7,1.5,1.5,1.5c0.8,0,1.5-0.7,1.5-1.5v-1.5h17.6v1.5c0,0.8,0.7,1.5,1.5,1.5c0.8,0,1.5-0.7,1.5-1.5v-1.5h2.8
	c0.1,0.5,0.2,1,0.2,1.5V21.5z M30.3,30.3c0,0.8-0.7,1.5-1.5,1.5c-0.8,0-1.5-0.7-1.5-1.5v-1.5h1.5c0.5,0,1,0,1.5-0.1V30.3z M9.8,30.3
	c0,0.8-0.7,1.5-1.5,1.5c-0.8,0-1.5-0.7-1.5-1.5v-1.6c0.5,0.1,1,0.1,1.5,0.1h1.5V30.3z M8.3,6.8c0.6-1.7,2.3-2.9,4.1-2.9h12.3
	c1.9,0,3.5,1.2,4.1,2.9l3.2,8.8h-27L8.3,6.8z M31.7,5.8C30.6,2.9,27.9,1,24.8,1H12.4C9.4,1,6.6,2.9,5.5,5.8l-4,10.9
	C1.2,17.8,1,18.9,1,20.1v1.5c0,2.3,1.1,4.5,2.9,5.8c0,0,0,0,0,0v2.9c0,2.4,2,4.4,4.4,4.4c2.4,0,4.4-2,4.4-4.4v-1.5h11.7v1.5
	c0,2.4,2,4.4,4.4,4.4c2.4,0,4.4-2,4.4-4.4v-2.9c0,0,0,0,0,0c1.8-1.4,2.9-3.5,2.9-5.8v-1.5c0-1.1-0.2-2.3-0.6-3.3L31.7,5.8z"/>
<path class="st1" d="M6.9,20.6v-2.1H11v2.1c0,0.3-0.1,0.5-0.2,0.8c-0.1,0.3-0.3,0.5-0.4,0.7s-0.4,0.3-0.7,0.4
	c-0.3,0.1-0.5,0.2-0.8,0.2s-0.5-0.1-0.8-0.2c-0.3-0.1-0.5-0.3-0.7-0.4S7.2,21.7,7,21.4C6.9,21.2,6.9,20.9,6.9,20.6z"/>
<path class="st1" d="M26.2,20.6v-2.1h4.1v2.1c0,0.3-0.1,0.5-0.2,0.8c-0.1,0.3-0.3,0.5-0.4,0.7s-0.4,0.3-0.7,0.4
	c-0.3,0.1-0.5,0.2-0.8,0.2s-0.5-0.1-0.8-0.2c-0.3-0.1-0.5-0.3-0.7-0.4s-0.3-0.4-0.4-0.7C26.2,21.2,26.2,20.9,26.2,20.6z"/>
</svg>
