<?xml version="1.0" encoding="utf-8"?>
<!-- Generator: Adobe Illustrator 26.0.1, SVG Export Plug-In . SVG Version: 6.00 Build 0)  -->
<svg version="1.1" id="Layer_1" xmlns="http://www.w3.org/2000/svg" xmlns:xlink="http://www.w3.org/1999/xlink" x="0px" y="0px"
	 viewBox="0 0 17.9 17.8" style="enable-background:new 0 0 17.9 17.8;" xml:space="preserve">
<style type="text/css">
	.st0{fill:#717171;}
</style>
<path class="st0" d="M10.8,12.1c0.3-0.2,0.5-0.6,0.3-1L9.7,8.7V4.5c0-0.4-0.3-0.7-0.7-0.7S8.2,4.1,8.2,4.5v4.4c0,0.1,0,0.3,0.1,0.4
	l1.5,2.5c0.1,0.2,0.4,0.4,0.6,0.4C10.5,12.2,10.7,12.1,10.8,12.1L10.8,12.1z M9,1.6c-4,0-7.3,3.3-7.3,7.3c0,4,3.3,7.3,7.3,7.3
	s7.3-3.3,7.3-7.3C16.2,4.9,13,1.6,9,1.6z M9,17.7c-4.8,0-8.8-3.9-8.8-8.8c0-4.8,3.9-8.8,8.8-8.8c4.8,0,8.8,3.9,8.8,8.8
	C17.7,13.7,13.8,17.7,9,17.7z"/>
</svg>
