<?xml version="1.0" encoding="utf-8"?>
<!-- Generator: Adobe Illustrator 26.0.1, SVG Export Plug-In . SVG Version: 6.00 Build 0)  -->
<svg version="1.1" id="Layer_1" xmlns="http://www.w3.org/2000/svg" xmlns:xlink="http://www.w3.org/1999/xlink" x="0px" y="0px"
	 viewBox="0 0 36.4 34.9" style="enable-background:new 0 0 36.4 34.9;" xml:space="preserve">
<style type="text/css">
	.st0{fill:#474747;}
	.st1{fill:#0071CF;}
</style>
<path class="st0" d="M18.1,23.8v5.7c0,0.8-0.6,1.4-1.4,1.4H11c-0.8,0-1.4-0.6-1.4-1.4s0.6-1.4,1.4-1.4h4.3v-2.8H8.1
	C4.2,25.2,1,22,1,18.1v-10C1,4.2,4.2,1,8.1,1h17.1c3.9,0,7.1,3.2,7.1,7.1c0,0.8-0.6,1.4-1.4,1.4c-0.8,0-1.4-0.6-1.4-1.4
	c0-2.4-1.9-4.3-4.3-4.3H8.1c-2.4,0-4.3,1.9-4.3,4.3v10c0,2.4,1.9,4.3,4.3,4.3h8.5C17.5,22.4,18.1,23,18.1,23.8z"/>
<path class="st1" d="M32.4,28.1c0,1.6-1.3,2.8-2.8,2.8h-2.8c-1.6,0-2.8-1.3-2.8-2.8v-10c0-1.6,1.3-2.8,2.8-2.8h2.8
	c1.6,0,2.8,1.3,2.8,2.8V28.1z M29.5,12.4h-2.8c-3.1,0-5.7,2.6-5.7,5.7v10c0,3.1,2.6,5.7,5.7,5.7h2.8c3.1,0,5.7-2.6,5.7-5.7v-10
	C35.2,15,32.7,12.4,29.5,12.4z"/>
</svg>
