<?xml version="1.0" encoding="utf-8"?>
<!-- Generator: Adobe Illustrator 26.0.1, SVG Export Plug-In . SVG Version: 6.00 Build 0)  -->
<svg version="1.1" id="Layer_1" xmlns="http://www.w3.org/2000/svg" xmlns:xlink="http://www.w3.org/1999/xlink" x="0px" y="0px"
	 viewBox="0 0 37.2 35.7" style="enable-background:new 0 0 37.2 35.7;" xml:space="preserve">
<style type="text/css">
	.st0{fill:#474747;}
	.st1{fill:#0071CF;}
</style>
<path class="st0" d="M15.5,15.9l4.3,3.4c1.1,0.8,1.7,2.1,1.7,3.4v6c0,2-1.6,3.6-3.6,3.6H7.8c-2,0-3.6-1.6-3.6-3.6v-6
	c0-1.3,0.6-2.6,1.7-3.4l4.3-3.4c0.8-0.6,1.7-0.9,2.7-0.9S14.7,15.3,15.5,15.9z M24.4,28.7v-6c0-2.2-1-4.3-2.8-5.7l-4.3-3.4
	c-2.6-2.1-6.3-2.1-8.9,0L4,17c-1.8,1.4-2.8,3.5-2.8,5.7v6c0,3.6,2.9,6.5,6.5,6.5h10.1C21.5,35.2,24.4,32.3,24.4,28.7z M35.9,28V7.8
	c0-4-3.2-7.2-7.2-7.2h-7.2c-4,0-7.2,3.2-7.2,7.2c0,0.8,0.6,1.4,1.4,1.4c0.8,0,1.4-0.6,1.4-1.4c0-2.4,1.9-4.3,4.3-4.3h7.2
	c2.4,0,4.3,1.9,4.3,4.3V28c0,2.4-1.9,4.3-4.3,4.3h-1.4c-0.8,0-1.4,0.6-1.4,1.4s0.6,1.4,1.4,1.4h1.4C32.7,35.2,35.9,32,35.9,28z"/>
<path class="st1" d="M28.7,22.2h-1.4c-0.8,0-1.4-0.6-1.4-1.4s0.6-1.4,1.4-1.4h1.4c0.8,0,1.4,0.6,1.4,1.4S29.5,22.2,28.7,22.2z"/>
<path class="st1" d="M30.2,26.5c0-0.8-0.6-1.4-1.4-1.4h-1.4c-0.8,0-1.4,0.6-1.4,1.4s0.6,1.4,1.4,1.4h1.4
	C29.5,28,30.2,27.3,30.2,26.5z"/>
<path class="st1" d="M24.4,9.2c0-0.8-0.6-1.4-1.4-1.4h-1.4c-0.8,0-1.4,0.6-1.4,1.4c0,0.8,0.6,1.4,1.4,1.4h1.4
	C23.7,10.7,24.4,10,24.4,9.2z"/>
<path class="st1" d="M30.2,9.2c0-0.8-0.6-1.4-1.4-1.4h-1.4c-0.8,0-1.4,0.6-1.4,1.4c0,0.8,0.6,1.4,1.4,1.4h1.4
	C29.5,10.7,30.2,10,30.2,9.2z"/>
<path class="st1" d="M30.2,15c0-0.8-0.6-1.4-1.4-1.4h-1.4c-0.8,0-1.4,0.6-1.4,1.4s0.6,1.4,1.4,1.4h1.4C29.5,16.4,30.2,15.8,30.2,15z
	"/>
<path class="st1" d="M15.7,26.5v-2.9c0-0.8-0.7-1.4-1.4-1.4h-2.9c-0.8,0-1.4,0.7-1.4,1.4v2.9c0,0.8,0.7,1.4,1.4,1.4h2.9
	C15.1,28,15.7,27.3,15.7,26.5z"/>
</svg>
