<?xml version="1.0" encoding="utf-8"?>
<!-- Generator: Adobe Illustrator 26.0.1, SVG Export Plug-In . SVG Version: 6.00 Build 0)  -->
<svg version="1.1" id="Layer_1" xmlns="http://www.w3.org/2000/svg" xmlns:xlink="http://www.w3.org/1999/xlink" x="0px" y="0px"
	 viewBox="0 0 167.6 166.7" style="enable-background:new 0 0 167.6 166.7;" xml:space="preserve">
<path style="fill:#DDDDDD;" d="M162.9,109.6c-4.7,13-12.9,23.7-23.4,32.6c-10.8,9.1-23.3,15.1-37.2,17.9
	c-21.2,4.3-41.5,1.6-60.7-8.5c-16.6-8.8-28.7-21.9-36.1-39.2c-2.3-5.3-0.1-11.1,5-13.6c5-2.3,11-0.3,13.4,5c3,6.6,6.7,12.7,11.8,18
	c9.8,10.1,21.7,16.2,35.4,18.7c13.5,2.4,26.7,1.2,39.3-4.3c14-6.1,24.6-15.9,31.6-29.6c1.1-2.1,2.2-4.5,3.8-6
	c5.6-5.1,14.2-2.5,16.5,4.8c0.1,0.4,0.3,0.8,0.4,1.1C162.9,107.6,162.9,108.6,162.9,109.6z"/>
<path style="fill:#DDDDDD;" d="M58.7,25.7c0,11.6-9.5,21.2-21.2,21.2c-11.6,0-21-9.4-21.1-21c0-11.6,9.4-21.2,21.1-21.3
	C49,4.6,58.7,14.1,58.7,25.7z"/>
<path style="fill:#DDDDDD;" d="M154.4,25.8c-0.1,11.7-9.5,21.1-21.2,21c-11.6,0-21.1-9.6-21-21.3c0.1-11.6,9.6-21,21.1-21
	C145,4.7,154.4,14.2,154.4,25.8z"/>
</svg>
