<?xml version="1.0" encoding="utf-8"?>
<!-- Generator: Adobe Illustrator 26.0.1, SVG Export Plug-In . SVG Version: 6.00 Build 0)  -->
<svg version="1.1" id="Layer_1" xmlns="http://www.w3.org/2000/svg" xmlns:xlink="http://www.w3.org/1999/xlink" x="0px" y="0px"
	 viewBox="0 0 24.5 24.4" style="enable-background:new 0 0 24.5 24.4;" xml:space="preserve">
<style type="text/css">
	.st0{fill:#2D70B8;}
</style>
<path class="st0" d="M7.6,2.4c1,0,1.7,0.8,1.7,1.7S8.6,5.8,7.6,5.8S5.9,5,5.9,4.1C5.9,3.1,6.7,2.4,7.6,2.4L7.6,2.4z M1.4,5.1h2.7
	C4.5,6.7,6,7.8,7.6,7.8s3.1-1.1,3.5-2.7h11.9c0.5,0,1-0.4,1-1c0-0.5-0.4-1-1-1H11.2c-0.4-1.6-1.9-2.7-3.5-2.7S4.5,1.5,4.1,3.1H1.4
	c-0.5,0-1,0.4-1,1C0.4,4.6,0.9,5.1,1.4,5.1z"/>
<path class="st0" d="M16.8,13.9c-1,0-1.7-0.8-1.7-1.7s0.8-1.7,1.7-1.7c1,0,1.7,0.8,1.7,1.7C18.5,13.1,17.8,13.9,16.8,13.9L16.8,13.9
	z M23.1,11.2h-2.7c-0.4-1.6-1.9-2.7-3.5-2.7c-1.7,0-3.1,1.1-3.5,2.7H1.4c-0.5,0-1,0.4-1,1c0,0.5,0.4,1,1,1h11.9
	c0.4,1.6,1.9,2.7,3.5,2.7c1.7,0,3.1-1.1,3.5-2.7h2.7c0.5,0,1-0.4,1-1C24,11.6,23.6,11.2,23.1,11.2z"/>
<path class="st0" d="M7.6,22c-1,0-1.7-0.8-1.7-1.7s0.8-1.7,1.7-1.7s1.7,0.8,1.7,1.7C9.4,21.3,8.6,22,7.6,22L7.6,22z M23.1,19.3H11.2
	c-0.4-1.6-1.9-2.7-3.5-2.7s-3.1,1.1-3.5,2.7H1.4c-0.5,0-1,0.4-1,1c0,0.5,0.4,1,1,1h2.7C4.5,22.9,6,24,7.6,24s3.1-1.1,3.5-2.7h11.9
	c0.5,0,1-0.4,1-1C24,19.8,23.6,19.3,23.1,19.3z"/>
</svg>
