<?xml version="1.0" encoding="utf-8"?>
<!-- Generator: Adobe Illustrator 26.0.1, SVG Export Plug-In . SVG Version: 6.00 Build 0)  -->
<svg version="1.1" id="Layer_1" xmlns="http://www.w3.org/2000/svg" xmlns:xlink="http://www.w3.org/1999/xlink" x="0px" y="0px"
	 viewBox="0 0 16.1 19.1" style="enable-background:new 0 0 16.1 19.1;" xml:space="preserve">
<style type="text/css">
	.st0{fill:#717171;}
</style>
<path class="st0" d="M8,9.5C7.2,9.5,6.5,8.8,6.5,8c0-0.9,0.7-1.6,1.6-1.6c0.9,0,1.6,0.7,1.6,1.6C9.6,8.8,8.9,9.5,8,9.5z M8,4.8
	C6.3,4.8,4.9,6.2,4.9,8c0,1.7,1.4,3.1,3.1,3.1s3.1-1.4,3.1-3.1C11.2,6.2,9.8,4.8,8,4.8z"/>
<path class="st0" d="M8,1.9C4.6,1.9,1.9,4.6,1.9,8c0,1.6,1.5,4.5,4.2,8.2c0.5,0.6,1.2,1,2,1c0.8,0,1.5-0.4,2-1
	c2.7-3.7,4.2-6.6,4.2-8.2C14.2,4.6,11.4,1.9,8,1.9L8,1.9z M8,18.9c-1.3,0-2.6-0.6-3.4-1.7C1.7,13.1,0.2,10,0.2,8
	c0-4.3,3.5-7.9,7.9-7.9c4.3,0,7.9,3.5,7.9,7.9c0,2-1.5,5.1-4.5,9.2C10.6,18.3,9.4,18.9,8,18.9L8,18.9z"/>
</svg>
