<?xml version="1.0" encoding="utf-8"?>
<!-- Generator: Adobe Illustrator 26.0.1, SVG Export Plug-In . SVG Version: 6.00 Build 0)  -->
<svg version="1.1" id="Layer_1" xmlns="http://www.w3.org/2000/svg" xmlns:xlink="http://www.w3.org/1999/xlink" x="0px" y="0px"
	 viewBox="0 0 104.7 36.9" style="enable-background:new 0 0 104.7 36.9;" xml:space="preserve">
<style type="text/css">
	.st0{fill:#FFFFFF;}
</style>
<path class="st0" d="M7.6,8.7C7.5,8.9,7.4,9.3,7.4,9.8c0,0.6-0.1,1.4-0.1,2.6c0,1.1,0,2.7,0,4.7c0,2,0,3.5,0,4.6c0,1.2,0,2,0.1,2.6
	c0,0.6,0.1,0.9,0.2,1.1c0.1,0.2,0.2,0.3,0.3,0.3c0.1,0,0.3-0.1,0.3-0.3c0.1-0.2,0.1-0.6,0.2-1.1c0-0.6,0.1-1.4,0.1-2.6v-4.6v-4.7
	c0-1.1,0-2-0.1-2.6c0-0.6-0.1-0.9-0.2-1.1C8.1,8.5,8,8.5,7.9,8.5C7.7,8.5,7.6,8.5,7.6,8.7z M1.2,34.9c-0.3-0.6-0.4-1.3-0.5-1.9
	c0-0.4,0,0.6,0-1.5c0-2.6-0.2-2.9-0.2-6.5c0-3.6,0-6.6,0.1-9.2c0-3.1,0.1-7.6,1.1-10.5C2.7,2,4.8,1.7,7.9,1.7c1.6,0,3.6,0,4.9,0.9
	c1.4,0.9,1.8,2.7,2.1,4.3c0.2,1.1,0.3,2.5,0.3,4.2c0,1.7,0.1,3.7,0.1,6c0,2.4,0,4.3,0,6c0,1.7-0.1,3.1-0.2,4.2
	c-0.1,1.2-0.3,3.3-1.1,4.3c-0.7,0.8-1.7,0.9-2.7,0.9c-0.9,0-1.6,0.2-2.2,0.2c-1.5,0.1-2.1,0-2.2,1.2c0,0.3-0.1,0.6-0.3,0.9
	c-0.4,0.7-1.2,1.2-2,1.4c-1,0.2-2.5,0.3-3.2-0.8C1.3,35.2,1.2,35.1,1.2,34.9z"/>
<path class="st0" d="M96.2,18v5.1c0,1.2-0.1,2.2-0.1,2.8c-0.1,0.6-0.1,1-0.2,1.2c-0.1,0.2-0.2,0.3-0.4,0.3c-0.2,0-0.3-0.1-0.4-0.3
	C95.1,27,95,26.6,95,25.9c-0.1-0.6-0.1-1.6-0.1-2.8c0-1.2,0-2.9,0-5.1c0-2.2,0-3.9,0-5.1c0-1.3,0-2.2,0.1-2.8c0.1-0.6,0.1-1,0.2-1.2
	c0.1-0.2,0.2-0.3,0.4-0.3c0.2,0,0.3,0.1,0.4,0.3C96,9,96.1,9.4,96.1,10c0,0.6,0.1,1.6,0.1,2.8V18z M103.6,11.3
	c-0.1-1.9-0.2-3.4-0.4-4.7C103,5,102.5,3,101,2C99.5,1,97.3,1,95.6,1c-1.2,0-2.3,0.1-3.2,0.1c-1.5,0.2-2.9,0.6-3.7,1.9
	c-0.9,1.5-1.1,4.2-1.2,6c-0.1,1.4-0.1,3.2-0.1,5.2v5.2c0,1.4,0,2.6-0.1,3.6c0,1-0.1,1.8-0.1,2.3c-0.1,0.6-0.1,1-0.2,1.3
	c-0.1,0.3-0.2,0.4-0.3,0.5c-0.1-0.1-0.2-0.3-0.2-0.5c-0.1-0.3-0.2-0.8-0.2-1.3c-0.1-0.6-0.1-1.3-0.1-2.3c0-1-0.1-2.2-0.1-3.6
	c0-1.4,0-3.2,0-5.2c0-2,0-3.7,0-5.2c0-1.4-0.1-2.6-0.2-3.6c-0.1-1.5-0.3-3.8-2.1-4.3C83.4,1.1,82.9,1,82.4,1c-0.6,0-1.1,0.1-1.5,0.1
	c-1.7,0.4-1.9,2.8-2.1,4.3c-0.1,1-0.2,2.2-0.2,3.6c0,1.4-0.1,3.2-0.1,5.2v5.2c0,1.4,0,2.6,0,3.6c0,1.2-0.1,2.4-0.2,3.7
	c-0.1,0.3-0.1,0.5-0.2,0.6c-0.1,0.1-0.2,0.2-0.3,0.2c-0.1,0-0.2-0.1-0.3-0.2c-0.1-0.1-0.2-0.3-0.2-0.6c-0.1-0.3-0.1-0.8-0.1-1.3
	c0-0.6-0.1-1.3-0.1-2.3c0-1,0-2.2,0-3.6c0-1.4,0-3.2,0-5.2c0-2,0-3.7,0-5.2c0-1.4-0.1-2.6-0.2-3.6C77,3.9,76.8,1.6,75,1.1
	C74.6,1.1,74.1,1,73.6,1c-0.6,0-1.1,0.1-1.5,0.1c-1.7,0.4-1.9,2.8-2.1,4.3c-0.1,1-0.2,2.2-0.2,3.6c0,1.4-0.1,3.2-0.1,5.2v5.2
	c0,1.4,0,2.6,0,3.6c0,1.2-0.1,2.4-0.2,3.7c-0.1,0.3-0.1,0.5-0.2,0.6c-0.1,0.1-0.2,0.2-0.3,0.2c-0.1,0-0.2-0.1-0.3-0.2
	c-0.1-0.1-0.2-0.3-0.2-0.6c-0.1-0.3-0.1-0.8-0.1-1.3c0-0.6-0.1-1.3-0.1-2.3c0-1,0-2.2,0-3.6c0-1.4,0-3.2,0-5.2c0-2,0-3.7,0-5.2
	c0-1.4-0.1-2.6-0.2-3.6c-0.1-1.4-0.4-3.8-2.1-4.3C65.8,1.1,65.3,1,64.7,1c-0.6,0-1.1,0.1-1.5,0.1c-1.7,0.4-1.9,2.8-2.1,4.3
	c-0.1,1-0.1,2.2-0.2,3.6c0,1.4-0.1,3.2-0.1,5.2v5.2c0,1.4,0,2.6-0.1,3.6c0,1-0.1,1.8-0.1,2.3c-0.1,0.6-0.1,1-0.2,1.3
	c-0.1,0.3-0.2,0.4-0.3,0.5c0,0,0,0,0,0c-0.2-0.1-0.3-0.5-0.4-1.1c-0.1-0.6-0.1-1.5-0.2-2.6c0-1.2-0.1,4.9-0.1,2.9c0-2,0-3.6-0.1-4.8
	c-0.1-1.2-0.2-3.3-1.6-3.8c-0.5-0.2-1.2-0.2-2-0.2c-3,0-3.5,0.9-3.7,4c-0.1,1.2-0.1,2.8-0.1,4.8c0,2,0-4.1,0-2.9
	c0,1.2-0.1,2.1-0.2,2.6c-0.1,0.6-0.2,1-0.4,1.1c0,0-0.1,0-0.1,0.1c-0.1-0.1-0.2-0.3-0.3-0.6c-0.1-0.3-0.2-0.8-0.2-1.3
	C51,24.8,51,24,51,23c0-1-0.1-2.2-0.1-3.6c0-1.4,0-3.2,0-5.2c0-2,0-3.7-0.1-5.2c-0.1-1.4-0.2-2.6-0.4-3.6C50,2.7,48.8,1.5,46,1.1
	C45.1,1.1,44,1,42.8,1c-6.2,0-7.8,0.7-8.1,7.6c0,0.5,0,0.8-0.1,0.9c0,0.2,0-0.1,0,1.1c0,1.4,0.1,2.7,0.2,3.6
	c0.1,0.9,0.2,1.7,0.4,2.2c0.6,1.7,1.4,2,3.2,2c3,0,3.4-1,3.6-4c0.1-1.2,0.1-2.8,0.1-4.8c0-2,0,4.1,0,2.9c0-1.2,0-2.1,0.1-2.6
	c0.1-0.6,0.1-0.9,0.2-1.1c0.1-0.2,0.2-0.2,0.4-0.2s0.3,0.1,0.4,0.3c0.1,0.2,0.2,0.6,0.2,1.2c0.1,0.6,0.1,1.6,0.1,2.8V18
	c0,2.2-0.1,3.9-0.2,5.1c-0.2,1.7-0.5,3.6-2.4,4.1c-0.8,0.2-1.8,0.3-3,0.3h-1.6h-1.7c-0.2,0-0.3-0.1-0.5-0.2
	c-0.2-0.1-0.3-0.3-0.3-0.6c-0.1-0.3-0.2-0.8-0.2-1.3c-0.1-0.6-0.1-1.3-0.1-2.3c0-1-0.1-2.2-0.1-3.6c0-1.4,0-3.2,0-5.2
	c0-2,0-3.7-0.1-5.2c-0.1-1.4-0.2-2.6-0.4-3.6c-0.5-2.7-1.7-3.9-4.5-4.3c-0.9-0.1-2-0.1-3.2-0.1c-6.2,0-7.8,0.7-8.1,7.6
	C17,10,17,11.7,17,13.6s0,3.6,0.1,4.9c0,1.4,0.1,2.5,0.2,3.5c0.1,0.9,0.2,1.7,0.4,2.2c0.5,1.7,1.5,2,3.2,2c3,0,3.4-1,3.6-4
	c0.1-1.2,0.1-2.8,0.1-4.8c0-2,0-3.6,0-4.8c0-1.2,0-2.1,0.1-2.6c0.1-0.6,0.1-0.9,0.2-1.1c0.1-0.2,0.2-0.2,0.4-0.2s0.3,0.1,0.4,0.3
	c0.1,0.2,0.2,0.6,0.2,1.2c0.1,0.6,0.1,1.6,0.1,2.8V18c0,2.2-0.1,3.9-0.1,5.1c-0.1,1.3-0.3,2.2-0.6,2.8c-0.7,1.5-2.3,1.5-3.7,1.5
	c-1,0-1.8,0-2.4,0.1c-1,0.1-1.7,0.5-1.9,1.6c-0.1,0.5-0.1,1.2-0.1,2c0,0.9,0.1,1.6,0.3,2c0.5,1.4,2.8,1.6,4,1.6
	c1.2,0.1,2.9,0.1,5.1,0.1h1.3c0.4,0,0.8,0,1.2,0v0h3.1h4.3h3.1v0c0.5,0,1.1,0,1.7,0h3.9c0.6,0,1.2,0,1.7,0v0h2.6h4.7h4.6h4.9h21.6
	h3.8h5.7c1.4,0,2.6-0.1,3.7-0.2c1.9-0.2,3.2-0.8,4.2-2.5c1.1-2,1.2-5.5,1.3-7.7c0.1-1.8,0.1-4,0.1-6.6
	C103.7,15.4,103.7,13.2,103.6,11.3z"/>
<path class="st0" d="M55,9.7h1.8c1.7,0,3.1,1.4,3.1,3.1V15c0,1.7-1.4,3.1-3.1,3.1H55c-1.7,0-3.1-1.4-3.1-3.1v-2.2
	C51.9,11.1,53.3,9.7,55,9.7z"/>
<path class="st0" d="M55,1.1h1.8c1.7,0,3.1,1.4,3.1,3.1v2.3c0,1.7-1.4,3.1-3.1,3.1H55c-1.7,0-3.1-1.4-3.1-3.1V4.3
	C51.9,2.5,53.3,1.1,55,1.1z"/>
<path class="st0" d="M37.5,18.2h1.8c1.7,0,3.1,1.4,3.1,3.1v1.8c0,1.7-1.4,3.1-3.1,3.1h-1.8c-1.7,0-3.1-1.4-3.1-3.1v-1.8
	C34.3,19.6,35.7,18.2,37.5,18.2z"/>
</svg>
