<?xml version="1.0" encoding="utf-8"?>
<!-- Generator: Adobe Illustrator 26.0.1, SVG Export Plug-In . SVG Version: 6.00 Build 0)  -->
<svg version="1.1" id="Layer_1" xmlns="http://www.w3.org/2000/svg" xmlns:xlink="http://www.w3.org/1999/xlink" x="0px" y="0px"
	 viewBox="0 0 45 41.3" style="enable-background:new 0 0 45 41.3;" xml:space="preserve">
<style type="text/css">
	.st0{fill:#FFFFFF;}
</style>
<path class="st0" d="M44,9L28.9,24.1c-3.5,3.5-9.2,3.5-12.7,0L1.1,9C1.1,9.3,1,9.5,1,9.8v21.5c0,4.9,4,9,9,9h25.1c4.9,0,9-4,9-9V9.8
	C44,9.5,44,9.3,44,9z"/>
<path class="st0" d="M26.3,21.6L42.7,5.2c-1.6-2.7-4.5-4.3-7.6-4.3H10c-3.1,0-6,1.6-7.6,4.3l16.4,16.4
	C20.8,23.7,24.2,23.7,26.3,21.6L26.3,21.6z"/>
</svg>
