<svg version="1.1" id="Layer_1" xmlns="http://www.w3.org/2000/svg" xmlns:xlink="http://www.w3.org/1999/xlink" x="0px" y="0px"
	 viewBox="0 0 37.9 35.2" style="enable-background:new 0 0 37.9 35.2;" xml:space="preserve">
<path style="fill:#FFFFFF;" d="M29.7,31.4H8.2c-2.5,0-4.6-2.1-4.6-4.6V10.7l9.9,9.9c3,3,7.9,3,10.9,0l9.9-9.9v16.2
	C34.3,29.4,32.3,31.4,29.7,31.4z M8.2,3.8h21.5c1.9,0,3.6,1.2,4.3,2.9L22.2,18.4c-1.8,1.8-4.7,1.8-6.5,0L3.9,6.7
	C4.6,4.9,6.3,3.8,8.2,3.8L8.2,3.8z M29.7,0.7H8.2C4,0.7,0.5,4.1,0.5,8.4v18.5c0,4.2,3.4,7.7,7.7,7.7h21.5c4.2,0,7.7-3.4,7.7-7.7V8.4
	C37.4,4.1,34,0.7,29.7,0.7L29.7,0.7z"/>
</svg>
