<?xml version="1.0" encoding="utf-8"?>
<!-- Generator: Adobe Illustrator 26.0.1, SVG Export Plug-In . SVG Version: 6.00 Build 0)  -->
<svg version="1.1" id="Layer_1" xmlns="http://www.w3.org/2000/svg" xmlns:xlink="http://www.w3.org/1999/xlink" x="0px" y="0px"
	 viewBox="0 0 17.9 17.8" style="enable-background:new 0 0 17.9 17.8;" xml:space="preserve">
<style type="text/css">
	.st0{fill:currentColor;}
</style>
<path class="st0" d="M10.4,3.1c1,1,1.6,2.5,1.5,4c-0.3,2.7-2.6,4.7-5.3,4.7H2.4c-0.7,0-0.7-0.9-0.7-1.2V6.9c0-2.7,2-5,4.7-5.3
	c0.1,0,0.2,0,0.4,0C8.1,1.6,9.4,2.2,10.4,3.1L10.4,3.1z M13.3,7.2c0.1-1.9-0.6-3.8-1.9-5.1c-1.3-1.3-3.2-2-5.1-1.9
	C2.8,0.6,0.2,3.5,0.2,6.9v3.7c0,1.8,1.1,2.7,2.2,2.7h4.2C10,13.3,12.9,10.7,13.3,7.2z M17.7,11.8v3.6c0,1.2-1,2.2-2.2,2.2h-3.6
	c-2.1,0-4-1.1-5-2.9c0.5,0,1.1-0.1,1.6-0.2c0.8,1,2.1,1.6,3.4,1.6h3.6c0.4,0,0.7-0.3,0.7-0.7v-3.6c0-1.3-0.6-2.6-1.6-3.4
	c0.1-0.5,0.2-1.1,0.2-1.6C16.6,7.8,17.7,9.8,17.7,11.8z"/>
</svg>
