<?xml version="1.0" encoding="utf-8"?>
<!-- Generator: Adobe Illustrator 26.0.1, SVG Export Plug-In . SVG Version: 6.00 Build 0)  -->
<svg version="1.1" id="Layer_1" xmlns="http://www.w3.org/2000/svg" xmlns:xlink="http://www.w3.org/1999/xlink" x="0px" y="0px"
	 viewBox="0 0 44.6 53.8" style="enable-background:new 0 0 44.6 53.8;" xml:space="preserve">
<path style="fill:#FFFFFF;" d="M39.5,26.9c0,11.7-13.5,19.3-17.1,21.2c-3.6-1.8-17.1-9.5-17.1-21.2v-11c0-2.8,1.8-5.2,4.4-6.1
	l12.7-4.2l12.7,4.2c2.6,0.9,4.4,3.3,4.4,6.1V26.9z M36.4,5.8L23,1.3c-0.4-0.1-0.9-0.1-1.4,0L8.2,5.8c-4.4,1.5-7.3,5.5-7.3,10.2v11
	c0,16.2,19.7,25.1,20.6,25.5c0.6,0.2,1.2,0.2,1.7,0c0.8-0.4,20.6-9.3,20.6-25.5v-11C43.7,11.3,40.8,7.2,36.4,5.8L36.4,5.8z"/>
<path style="fill:#FFFFFF;" d="M29.4,19l-9,9l-4.8-5c-0.5-0.6-1.3-0.8-2.1-0.6c-0.8,0.2-1.4,0.8-1.6,1.5s0,1.6,0.6,2.1l4.9,5.1
	c0.7,0.8,1.8,1.3,2.9,1.3h0.1c1.1,0,2.1-0.4,2.9-1.2l9.2-9.2c0.8-0.8,0.8-2.2,0-3C31.6,18.1,30.2,18.1,29.4,19z"/>
</svg>
