<?xml version="1.0" encoding="utf-8"?>
<!-- Generator: Adobe Illustrator 26.0.1, SVG Export Plug-In . SVG Version: 6.00 Build 0)  -->
<svg version="1.1" id="Layer_1" xmlns="http://www.w3.org/2000/svg" xmlns:xlink="http://www.w3.org/1999/xlink" x="0px" y="0px"
	 viewBox="0 0 23 22" style="enable-background:new 0 0 23 22;" xml:space="preserve">
<style type="text/css">
	.st0{fill:#474747;}
</style>
<path class="st0" d="M9.9,16.3c-3.9,0-7-3.1-7-7s3.1-7,7-7s7,3.1,7,7C16.8,13.2,13.7,16.3,9.9,16.3z M21.8,20.1l-5.2-5.2
	c3-3.6,2.6-8.9-0.9-12c-3.5-3.1-8.8-3-12.1,0.3c-3.3,3.3-3.4,8.6-0.3,12.1c3.1,3.5,8.4,3.9,12,0.9l5.2,5.2c0.3,0.3,0.9,0.3,1.2,0
	C22.2,21,22.2,20.4,21.8,20.1L21.8,20.1z"/>
</svg>
