<?xml version="1.0" encoding="utf-8"?>
<!-- Generator: Adobe Illustrator 26.0.1, SVG Export Plug-In . SVG Version: 6.00 Build 0)  -->
<svg version="1.1" id="Layer_1" xmlns="http://www.w3.org/2000/svg" xmlns:xlink="http://www.w3.org/1999/xlink" x="0px" y="0px"
	 viewBox="0 0 46.1 43.9" style="enable-background:new 0 0 46.1 43.9;" xml:space="preserve">
<path style="fill:#2D70B8;" d="M0.6,20.2l44.8,0c-0.2-0.7-0.7-1.4-1.2-1.9l-3.8-3.8c-0.3-0.3-0.5-0.8-0.5-1.2l0-4.2
	c0-2.3-0.9-4.4-2.5-6c-0.7-0.7-1.4-1.2-2.3-1.6c-2.9-1.5-6.3-1.2-8.9,0.8L2.8,17.5C1.8,18.2,1,19.1,0.6,20.2z"/>
<path style="fill:#2D70B8;" d="M2.7,26.3l23.5,15.3c3.8,2.9,9.1,2.1,12-1.6c1.1-1.5,1.7-3.3,1.7-5.2v-4.2c0-0.5,0.2-0.9,0.5-1.2
	l3.8-3.8c0.5-0.5,0.9-1.2,1.2-1.9l-44.8,0C1,24.8,1.7,25.7,2.7,26.3z"/>
</svg>
