<svg xmlns="http://www.w3.org/2000/svg" width="296.999" height="297.001" viewBox="0 0 296.999 297.001">
	<g id="small-card" transform="translate(-0.001)">
	  <g id="Group_2" data-name="Group 2">
		<g id="Group_1" data-name="Group 1">
		  <path id="Path_1" data-name="Path 1" d="M107.883,0H22.613A22.637,22.637,0,0,0,0,22.612v85.27a22.637,22.637,0,0,0,22.612,22.612h85.27a22.637,22.637,0,0,0,22.612-22.612V22.612A22.638,22.638,0,0,0,107.883,0Z"/>
		  <path id="Path_2" data-name="Path 2" d="M274.388,0h-85.27a22.637,22.637,0,0,0-22.612,22.612v85.27a22.637,22.637,0,0,0,22.612,22.612h85.27A22.637,22.637,0,0,0,297,107.882V22.612A22.637,22.637,0,0,0,274.388,0Z"/>
		  <path id="Path_3" data-name="Path 3" d="M107.883,166.507H22.613A22.636,22.636,0,0,0,0,189.118v85.27A22.637,22.637,0,0,0,22.613,297h85.27a22.637,22.637,0,0,0,22.612-22.612v-85.27A22.637,22.637,0,0,0,107.883,166.507Z"/>
		  <path id="Path_4" data-name="Path 4" d="M274.388,166.507h-85.27a22.637,22.637,0,0,0-22.612,22.612v85.27A22.637,22.637,0,0,0,189.118,297h85.27A22.638,22.638,0,0,0,297,274.388v-85.27A22.636,22.636,0,0,0,274.388,166.507Z"/>
		</g>
	  </g>
	</g>
  </svg>
  