<?xml version="1.0" encoding="utf-8"?>
<!-- Generator: Adobe Illustrator 26.0.1, SVG Export Plug-In . SVG Version: 6.00 Build 0)  -->
<svg version="1.1" id="Layer_1" xmlns="http://www.w3.org/2000/svg" xmlns:xlink="http://www.w3.org/1999/xlink" x="0px" y="0px"
	 viewBox="0 0 31.6 30" style="enable-background:new 0 0 31.6 30;" xml:space="preserve">
<path style="fill:currentColor;" d="M15.8,0.5c0.4,0,0.8,0.3,1,0.7c1.3,2.6,2.6,5.3,3.9,7.9c0.1,0.2,0.3,0.3,0.5,0.4
	c2.9,0.4,5.7,0.8,8.6,1.2l0.4,0.1c0.6,0.1,1,0.7,0.9,1.2c0,0.2-0.1,0.4-0.3,0.5c-0.3,0.3-0.6,0.6-0.9,0.8l-5.6,5.5
	c-0.2,0.1-0.2,0.3-0.2,0.5c0.5,3,1,5.9,1.5,8.9c0.1,0.6-0.3,1.2-0.8,1.3c-0.3,0.1-0.5,0-0.8-0.1l-7.9-4.2c-0.2-0.1-0.4-0.1-0.6,0
	l-7.8,4.1c-0.4,0.2-0.9,0.2-1.2,0c-0.4-0.2-0.6-0.7-0.5-1.1c0.4-2.3,0.8-4.7,1.2-7c0.1-0.6,0.2-1.3,0.3-1.9c0-0.2,0-0.4-0.2-0.5
	c-2.1-2-4.1-4-6.2-6l-0.1-0.1c-0.4-0.3-0.6-0.8-0.4-1.3c0.2-0.5,0.6-0.8,1.1-0.8l8.6-1.2c0.2,0,0.4-0.2,0.5-0.3
	c1.3-2.6,2.6-5.3,3.9-7.9C14.9,0.7,15.4,0.5,15.8,0.5z"/>
</svg>
