<?xml version="1.0" encoding="utf-8"?>
<!-- Generator: Adobe Illustrator 26.0.1, SVG Export Plug-In . SVG Version: 6.00 Build 0)  -->
<svg version="1.1" id="Layer_1" xmlns="http://www.w3.org/2000/svg" xmlns:xlink="http://www.w3.org/1999/xlink" x="0px" y="0px"
	 viewBox="0 0 10.2 13.5" style="enable-background:new 0 0 10.2 13.5;" xml:space="preserve">
<style type="text/css">
	.st0{fill:#717171;}
</style>
<path class="st0" d="M5.1,1.3c1.2,0,2.2,1,2.2,2.2s-1,2.2-2.2,2.2c-1.2,0-2.2-1-2.2-2.2S3.9,1.3,5.1,1.3L5.1,1.3z M5.1,6.8
	c1.8,0,3.3-1.5,3.3-3.3S6.9,0.2,5.1,0.2c-1.8,0-3.3,1.5-3.3,3.3C1.8,5.3,3.3,6.8,5.1,6.8L5.1,6.8z"/>
<path class="st0" d="M5.1,7.9c-2.7,0-4.9,2.2-4.9,4.9c0,0.3,0.2,0.5,0.5,0.5c0.3,0,0.5-0.2,0.5-0.5C1.3,10.7,3,9,5.1,9
	s3.8,1.7,3.8,3.8c0,0.3,0.2,0.5,0.5,0.5c0.3,0,0.5-0.2,0.5-0.5C10,10.1,7.8,7.9,5.1,7.9z"/>
</svg>
