<?xml version="1.0" encoding="utf-8"?>
<!-- Generator: Adobe Illustrator 26.0.1, SVG Export Plug-In . SVG Version: 6.00 Build 0)  -->
<svg version="1.1" id="Layer_1" xmlns="http://www.w3.org/2000/svg" xmlns:xlink="http://www.w3.org/1999/xlink" x="0px" y="0px"
	 viewBox="0 0 24.8 24.8" style="enable-background:new 0 0 24.8 24.8;" xml:space="preserve">
<style type="text/css">
	.st0{fill:#FFFFFF;}
</style>
<path class="st0" d="M22.7,11.5h-1.9V9.6c0-0.5-0.4-0.9-0.9-0.9S19,9.1,19,9.6v1.9h-1.9c-0.5,0-0.9,0.4-0.9,0.9s0.4,0.9,0.9,0.9H19
	v1.9c0,0.5,0.4,0.9,0.9,0.9s0.9-0.4,0.9-0.9v-1.9h1.9c0.5,0,0.9-0.4,0.9-0.9S23.2,11.5,22.7,11.5z"/>
<path class="st0" d="M9.6,3.1c2.1,0,3.7,1.7,3.7,3.7c0,2.1-1.7,3.7-3.7,3.7c-2.1,0-3.7-1.7-3.7-3.7C5.9,4.8,7.6,3.1,9.6,3.1L9.6,3.1
	z M9.6,12.4c3.1,0,5.6-2.5,5.6-5.6c0-3.1-2.5-5.6-5.6-5.6C6.5,1.2,4,3.7,4,6.8C4,9.9,6.5,12.4,9.6,12.4L9.6,12.4z"/>
<path class="st0" d="M9.6,14.3c-4.6,0-8.4,3.8-8.4,8.4c0,0.5,0.4,0.9,0.9,0.9c0.5,0,0.9-0.4,0.9-0.9c0-3.6,2.9-6.5,6.5-6.5
	s6.5,2.9,6.5,6.5c0,0.5,0.4,0.9,0.9,0.9c0.5,0,0.9-0.4,0.9-0.9C18,18,14.3,14.3,9.6,14.3z"/>
</svg>
