<?xml version="1.0" encoding="utf-8"?>
<!-- Generator: Adobe Illustrator 26.0.1, SVG Export Plug-In . SVG Version: 6.00 Build 0)  -->
<svg version="1.1" id="Layer_1" xmlns="http://www.w3.org/2000/svg" xmlns:xlink="http://www.w3.org/1999/xlink" x="0px" y="0px"
	 viewBox="0 0 47 47.4" style="enable-background:new 0 0 47 47.4;" xml:space="preserve">
<path style="fill-rule:evenodd;clip-rule:evenodd;fill:#FFFFFF;" d="M33.8,28.2c-0.6-0.3-3.3-1.6-3.8-1.8c-0.5-0.2-0.9-0.3-1.3,0.3
	c-0.4,0.6-1.4,1.8-1.8,2.2c-0.3,0.4-0.7,0.4-1.2,0.1c-0.6-0.3-2.4-0.9-4.5-2.8c-1.7-1.5-2.8-3.3-3.1-3.9c-0.3-0.6,0-0.9,0.2-1.1
	c0.3-0.3,0.6-0.7,0.8-1c0.3-0.3,0.4-0.6,0.6-0.9c0.2-0.4,0.1-0.7,0-1c-0.1-0.3-1.3-3-1.7-4.2c-0.5-1.1-0.9-0.9-1.3-1
	c-0.3,0-0.7,0-1.1,0c-0.4,0-1,0.1-1.5,0.7s-2,1.9-2,4.7c0,2.8,2,5.4,2.3,5.8c0.3,0.4,4,6,9.6,8.5c1.3,0.6,2.4,0.9,3.2,1.2
	c1.3,0.4,2.6,0.4,3.5,0.2c1.1-0.2,3.3-1.4,3.8-2.7c0.5-1.3,0.5-2.4,0.3-2.7C34.7,28.6,34.4,28.5,33.8,28.2z M23.6,42.1L23.6,42.1
	c-3.4,0-6.6-0.9-9.5-2.6l-0.7-0.4L6.3,41l1.9-6.9l-0.4-0.7c-1.9-3-2.9-6.4-2.9-9.9c0-10.3,8.4-18.7,18.7-18.7c5,0,9.7,1.9,13.2,5.5
	c3.5,3.5,5.5,8.2,5.5,13.2C42.2,33.8,33.9,42.1,23.6,42.1z M39.5,7.6C35.2,3.4,29.6,1,23.6,1C11.2,1,1.1,11.1,1.1,23.5
	c0,4,1,7.8,3,11.2L1,46.3l11.9-3.1c3.3,1.8,7,2.7,10.7,2.7h0C35.9,45.9,46,35.9,46,23.5C46,17.5,43.7,11.9,39.5,7.6z"/>
</svg>
